<?xml version="1.0" standalone="no"?>
<!DOCTYPE svg PUBLIC "-//W3C//DTD SVG 20010904//EN"
 "http://www.w3.org/TR/2001/REC-SVG-20010904/DTD/svg10.dtd">
<svg version="1.0" xmlns="http://www.w3.org/2000/svg"
 width="1341.000000pt" height="660.000000pt" viewBox="0 0 1341.000000 660.000000"
 preserveAspectRatio="xMidYMid meet">
<metadata>
Created by potrace 1.16, written by Peter Selinger 2001-2019
</metadata>
<g transform="translate(0.000000,660.000000) scale(0.100000,-0.100000)"
fill="#000000" stroke="none">
<path d="M1272 6398 c3 -95 4 -103 23 -103 17 0 20 8 23 52 5 86 58 82 64 -5
3 -39 6 -47 23 -47 17 0 20 8 23 52 3 46 0 56 -23 79 -19 19 -34 25 -55 22
-25 -4 -29 -1 -32 21 -2 18 -10 27 -26 29 -23 3 -23 3 -20 -100z"/>
<path d="M1450 6395 c0 -98 1 -105 20 -105 11 0 20 5 20 12 0 9 3 9 12 0 7 -7
24 -12 39 -12 48 0 82 64 63 115 -10 25 -63 45 -91 34 -21 -8 -23 -6 -23 26 0
28 -4 35 -20 35 -19 0 -20 -7 -20 -105z"/>
<path d="M367 6443 c-4 -3 -23 -6 -42 -5 l-35 1 0 -99 c0 -93 1 -100 20 -100
16 0 20 7 20 37 0 29 3 34 12 25 19 -19 63 -14 86 11 27 28 29 77 5 105 -20
22 -56 36 -66 25z"/>
<path d="M524 6442 c-56 -9 -75 -83 -34 -127 27 -29 74 -33 108 -9 37 26 27
37 -28 29 -34 -5 -50 -3 -50 4 0 7 21 11 50 11 60 0 73 18 43 58 -20 27 -53
40 -89 34z"/>
<path d="M680 6441 l-35 -6 0 -70 c0 -63 2 -70 20 -70 17 0 21 8 25 49 9 89
66 87 72 -2 3 -39 6 -47 23 -47 18 0 20 7 20 59 -1 49 -4 61 -24 77 -24 19
-40 21 -101 10z"/>
<path d="M1020 6420 c0 -16 7 -20 33 -21 l32 -1 -32 -8 c-60 -14 -81 -51 -48
-84 18 -18 105 -19 117 -2 11 16 10 80 -2 110 -8 23 -15 26 -55 26 -38 0 -45
-3 -45 -20z"/>
<path d="M1650 6421 c0 -17 7 -21 33 -22 l32 -1 -32 -8 c-41 -9 -63 -27 -63
-51 0 -32 27 -48 81 -47 l50 1 -3 71 -3 71 -47 3 c-43 3 -48 1 -48 -17z"/>
<path d="M0 5895 l0 -255 1125 0 1125 0 0 255 0 255 -1125 0 -1125 0 0 -255z"/>
<path d="M127 5463 c-4 -3 -7 -42 -7 -85 l0 -78 80 0 c73 0 80 2 80 20 0 15
-7 20 -25 20 -20 0 -25 5 -25 25 0 18 7 26 25 31 24 6 36 34 15 34 -5 0 -10 9
-10 20 0 18 -7 20 -63 20 -35 0 -67 -3 -70 -7z"/>
<path d="M230 4985 c0 -9 9 -15 25 -15 24 0 25 -3 25 -55 0 -52 -1 -55 -25
-55 -19 0 -25 -5 -25 -21 0 -11 4 -18 9 -14 5 3 13 1 16 -5 5 -8 11 -8 20 0
10 8 15 8 20 0 5 -8 11 -8 20 0 8 7 19 9 25 5 7 -4 10 24 10 84 l0 91 -60 0
c-47 0 -60 -3 -60 -15z"/>
<path d="M7588 4268 c-2 -6 -14 -12 -25 -13 -29 -2 -53 -23 -46 -41 3 -7 -2
-17 -11 -20 -9 -4 -16 -18 -16 -34 0 -16 7 -30 16 -34 9 -3 14 -13 11 -20 -7
-18 17 -39 46 -41 11 -1 23 -7 25 -13 2 -7 14 -12 27 -12 13 0 25 5 27 12 2 6
14 12 25 13 29 2 53 23 46 41 -3 7 2 17 11 20 9 4 16 18 16 34 0 16 -7 30 -16
34 -9 3 -14 13 -11 20 7 18 -17 39 -46 41 -11 1 -23 7 -25 13 -2 7 -14 12 -27
12 -13 0 -25 -5 -27 -12z m62 -23 c17 -9 32 -15 35 -15 3 0 5 -2 5 -5 0 -3 7
-19 15 -35 14 -27 14 -33 0 -60 -8 -16 -15 -32 -15 -35 0 -3 -2 -5 -5 -5 -3 0
-19 -7 -36 -16 -27 -13 -36 -14 -63 -2 -17 7 -34 13 -38 13 -5 0 -8 3 -8 8 0
4 -7 21 -15 37 -14 27 -14 33 0 60 8 16 14 33 13 36 -2 4 4 8 14 10 9 1 24 7
35 13 24 14 29 14 63 -4z"/>
<path d="M7562 4207 c-28 -30 -28 -68 1 -95 46 -44 127 -12 127 49 0 60 -86
91 -128 46z"/>
<path d="M4764 4247 c-3 -8 -4 -52 -2 -98 l3 -84 110 0 110 0 3 73 c2 57 -1
77 -15 97 -17 23 -24 24 -111 25 -68 0 -94 -4 -98 -13z m206 -46 c0 -15 -8
-21 -32 -23 -26 -2 -34 -8 -36 -27 -4 -26 12 -41 46 -41 15 0 22 -6 22 -20 0
-19 -7 -20 -95 -20 l-95 0 0 75 0 75 95 0 c87 0 95 -2 95 -19z"/>
<path d="M5992 4243 c-7 -2 -17 -14 -23 -25 -8 -15 -7 -24 5 -37 15 -16 15
-19 1 -31 -23 -19 -18 -57 10 -76 52 -34 123 13 96 65 -7 11 -17 21 -24 21 -7
0 -4 5 6 11 27 16 22 58 -9 69 -27 11 -42 11 -62 3z"/>
<path d="M210 3941 c-5 -11 -7 -40 -4 -65 l7 -46 57 0 57 0 7 46 c9 67 -4 84
-64 84 -38 0 -52 -4 -60 -19z"/>
<path d="M179 2409 c-7 -13 -17 -19 -29 -16 -23 6 -35 -20 -19 -39 9 -11 9
-17 0 -28 -16 -19 -4 -45 19 -39 12 3 22 -3 29 -16 15 -27 37 -27 44 0 4 16
11 20 27 16 26 -7 38 17 20 38 -10 12 -10 18 0 30 18 21 6 45 -20 38 -16 -4
-23 0 -27 16 -7 27 -29 27 -44 0z"/>
<path d="M4897 2242 c-26 -26 -47 -53 -47 -60 0 -20 25 -13 51 14 l24 26 5
-84 c4 -65 8 -83 20 -83 12 0 16 18 20 83 l5 84 24 -26 c26 -28 51 -34 51 -13
0 12 -89 107 -101 107 -2 0 -26 -22 -52 -48z"/>
<path d="M7627 2284 c-4 -4 -7 -43 -7 -88 l0 -80 -28 27 c-15 15 -33 27 -40
27 -24 0 -11 -27 38 -75 l50 -49 50 49 c50 49 62 75 37 75 -8 0 -24 -12 -38
-26 l-24 -26 -5 83 c-5 75 -15 101 -33 83z"/>
<path d="M3197 2163 c-23 -12 -28 -20 -25 -46 2 -22 10 -35 26 -42 15 -7 22
-18 22 -37 0 -30 -14 -37 -27 -13 -6 10 -13 11 -23 4 -13 -8 -11 -13 10 -29
14 -11 31 -25 38 -30 6 -6 12 -7 12 -1 0 5 11 12 25 15 54 14 54 88 0 102 -18
4 -25 13 -25 30 0 27 3 29 30 12 21 -13 36 -6 25 11 -3 6 -18 17 -33 25 -23
12 -31 12 -55 -1z"/>
<path d="M6112 2164 c-29 -12 -33 -18 -30 -46 2 -24 10 -36 31 -46 18 -9 27
-21 27 -38 0 -24 -23 -34 -35 -14 -3 6 -13 10 -21 10 -24 0 2 -39 31 -46 14
-3 25 -11 25 -18 0 -7 3 -7 8 -1 4 6 19 18 35 28 38 24 37 62 -3 85 -29 16
-43 62 -20 62 6 0 10 -4 10 -10 0 -5 7 -10 15 -10 25 0 17 29 -13 44 -23 12
-32 12 -60 0z"/>
<path d="M2980 2075 c0 -78 3 -95 15 -95 10 0 15 11 15 35 0 31 3 35 25 35 17
0 32 -10 47 -35 13 -19 31 -35 41 -35 19 0 18 5 -14 51 -17 24 -17 26 2 37 27
17 25 67 -3 86 -14 10 -44 16 -75 16 l-53 0 0 -95z"/>
<path d="M3639 2149 c-18 -18 -21 -30 -17 -81 3 -44 10 -64 23 -74 51 -37 95
1 95 81 0 42 -5 60 -20 75 -26 26 -55 25 -81 -1z"/>
<path d="M3789 2149 c-18 -18 -21 -30 -17 -81 3 -44 10 -64 23 -74 51 -37 95
1 95 81 0 42 -5 60 -20 75 -26 26 -55 25 -81 -1z"/>
<path d="M3958 2163 c-43 -11 -49 -132 -8 -165 29 -23 45 -23 70 2 15 15 20
33 20 75 0 75 -26 103 -82 88z"/>
<path d="M4170 2150 c-15 -15 -20 -33 -20 -75 0 -57 22 -95 55 -95 32 0 65 47
65 90 0 86 -52 128 -100 80z"/>
<path d="M4319 2149 c-18 -18 -21 -30 -17 -81 3 -44 10 -64 23 -74 51 -37 95
1 95 81 0 42 -5 60 -20 75 -26 26 -55 25 -81 -1z"/>
<path d="M5890 2075 c0 -78 3 -95 15 -95 10 0 15 11 15 35 0 32 3 35 29 35 23
0 34 -8 50 -35 11 -19 27 -35 36 -35 19 0 19 3 -5 42 -19 32 -19 32 2 55 15
16 19 29 14 48 -8 31 -40 45 -107 45 l-49 0 0 -95z"/>
<path d="M6483 2160 c-27 -11 -32 -57 -7 -67 13 -5 12 -8 -5 -25 -24 -22 -24
-19 -12 -51 13 -33 63 -45 96 -23 28 19 33 57 10 76 -14 12 -14 15 0 30 21 23
19 36 -7 54 -25 18 -42 19 -75 6z"/>
<path d="M6629 2149 c-18 -18 -21 -30 -17 -81 3 -44 10 -64 23 -74 51 -37 95
1 95 81 0 42 -5 60 -20 75 -26 26 -55 25 -81 -1z"/>
<path d="M6880 2163 c-28 -10 -40 -37 -40 -90 0 -58 23 -93 60 -93 47 0 81 81
45 110 -8 7 -29 10 -45 8 -27 -4 -31 -2 -28 16 3 18 9 21 41 19 40 -3 49 10
18 27 -21 11 -28 11 -51 3z"/>
<path d="M7010 2150 c-15 -15 -20 -33 -20 -75 0 -57 22 -95 55 -95 32 0 65 47
65 90 0 86 -52 128 -100 80z"/>
<path d="M200 1855 l0 -55 70 0 70 0 0 55 0 55 -70 0 -70 0 0 -55z"/>
<path d="M0 265 l0 -265 1135 0 1135 0 0 265 0 265 -1135 0 -1135 0 0 -265z"/>
</g>
</svg>
