<?xml version="1.0" encoding="UTF-8" standalone="no"?>
<!-- Created with Inkscape (http://www.inkscape.org/) -->

<svg
   xmlns:dc="http://purl.org/dc/elements/1.1/"
   xmlns:cc="http://creativecommons.org/ns#"
   xmlns:rdf="http://www.w3.org/1999/02/22-rdf-syntax-ns#"
   xmlns:svg="http://www.w3.org/2000/svg"
   xmlns="http://www.w3.org/2000/svg"
   xmlns:sodipodi="http://sodipodi.sourceforge.net/DTD/sodipodi-0.dtd"
   xmlns:inkscape="http://www.inkscape.org/namespaces/inkscape"
   version="1.1"
   id="svg2"
   xml:space="preserve"
   width="265mm"
   height="42mm"
   viewBox="0 0 1001.5757 158.74005"
   sodipodi:docname="logo-black.svg"
   inkscape:version="0.92.5 (2060ec1f9f, 2020-04-08)"><metadata
     id="metadata8"><rdf:RDF><cc:Work
         rdf:about=""><dc:format>image/svg+xml</dc:format><dc:type
           rdf:resource="http://purl.org/dc/dcmitype/StillImage" /><dc:title></dc:title></cc:Work></rdf:RDF></metadata><defs
     id="defs6"><clipPath
       clipPathUnits="userSpaceOnUse"
       id="clipPath20"><path
         d="M 0,768 H 1366 V 0 H 0 Z"
         id="path18"
         inkscape:connector-curvature="0" /></clipPath></defs><sodipodi:namedview
     pagecolor="#ffffff"
     bordercolor="#666666"
     borderopacity="1"
     objecttolerance="10"
     gridtolerance="10"
     guidetolerance="10"
     inkscape:pageopacity="0"
     inkscape:pageshadow="2"
     inkscape:window-width="1366"
     inkscape:window-height="731"
     id="namedview4"
     showgrid="false"
     inkscape:zoom="0.25927734"
     inkscape:cx="1100.5201"
     inkscape:cy="307.96442"
     inkscape:window-x="0"
     inkscape:window-y="0"
     inkscape:window-maximized="1"
     inkscape:current-layer="g14"
     units="mm" /><g
     id="g10"
     inkscape:groupmode="layer"
     inkscape:label="Copy_of_opcashback_logo_2021_v2"
     transform="matrix(1.3333333,0,0,-1.3333333,0,158.73975)"><g
       id="g14"><g
         id="g16"
         clip-path="url(#clipPath20)"
         transform="translate(-277.69492,-344.226)"><g
           id="g22"
           transform="translate(405.2457,393.29079)"><path
             d="m 0,0 c -0.981,-2.852 -4.17,-6.014 -7.03,-6.971 -12.685,-4.246 -22.712,6.169 -18.352,18.803 1.13,3.275 3.745,5.864 7.031,6.963 C -5.674,23.032 4.348,12.634 0,0 m -9.51,35.253 c -6.694,0 -12.361,-2.677 -16.5,-7.133 -0.148,-0.159 -0.408,-0.06 -0.409,0.157 v 0.865 c 0,2.278 -1.846,4.732 -4.124,4.732 h -7.174 c -2.613,0 -4.732,-2.118 -4.732,-4.732 v -67.405 c 0,-2.611 2.116,-4.727 4.727,-4.727 h 6.576 c 2.611,0 4.728,2.116 4.727,4.727 v 22.418 c 4.172,-4.726 9.992,-7.584 16.909,-7.584 15.483,0 27.012,12.636 27.012,29.34 0,16.704 -11.529,29.342 -27.012,29.342"
             style="fill:#000000;fill-opacity:1;fill-rule:nonzero;stroke:none"
             id="path24"
             inkscape:connector-curvature="0" /></g><g
           id="g26"
           transform="translate(445.2861,404.63879)"><path
             d="m 0,0 h 24.969 c 0.232,0 0.405,0.228 0.338,0.451 -1.774,5.889 -6.832,9.55 -12.828,9.55 C 6.377,10.001 1.631,6.343 -0.332,0.458 -0.406,0.235 -0.234,0 0,0 M 39.174,-10.661 H 1.118 c -0.853,0 -1.463,-0.862 -1.146,-1.655 2.113,-5.297 6.749,-8.563 12.835,-8.563 4.372,0 8.164,1.596 10.433,3.903 1.027,1.044 2.383,1.7 3.848,1.7 h 8.538 c 2.924,0 4.772,-3.218 3.226,-5.699 -5.269,-8.454 -14.845,-13.86 -26.373,-13.86 -17.24,0 -30.197,12.636 -30.197,29.339 0,16.704 12.957,29.343 30.197,29.343 17.129,0 30.196,-12.529 30.196,-29.563 l -0.002,-1.449 c -0.001,-1.931 -1.567,-3.496 -3.499,-3.496"
             style="fill:#000000;fill-opacity:1;fill-rule:nonzero;stroke:none"
             id="path28"
             inkscape:connector-curvature="0" /></g><g
           id="g30"
           transform="translate(681.0623,388.15489)"><path
             d="m 0,0 h 8.523 c 1.495,0 2.932,-0.808 3.541,-2.174 0.896,-2.01 2.996,-3.431 5.465,-3.431 3.075,0 5.491,1.87 5.491,4.288 0,3.515 -4.392,5.162 -9.004,6.152 -8.456,1.978 -17.679,6.263 -17.679,17.802 0,11.538 9.773,17.694 20.862,17.694 9.955,0 17.821,-5.301 20.279,-12.64 0.817,-2.438 -1.093,-4.944 -3.664,-4.944 h -8.397 c -1.343,0 -3.063,0.914 -3.671,2.112 -0.813,1.602 -2.539,2.723 -4.657,2.723 -2.636,0 -4.721,-1.758 -4.721,-3.845 0,-3.188 3.844,-4.946 9.333,-6.263 8.456,-2.09 17.35,-6.046 17.35,-17.364 0,-11.758 -9.773,-18.461 -21.632,-18.461 -10.493,0 -18.638,5.691 -21.09,13.418 C -4.447,-2.488 -2.565,0 0,0"
             style="fill:#000000;fill-opacity:1;fill-rule:nonzero;stroke:none"
             id="path32"
             inkscape:connector-curvature="0" /></g><g
           id="g34"
           transform="translate(940.2448,369.80359)"><path
             d="m 0,0 c 13.104,0 23.828,7.399 28.049,18.285 0.996,2.568 -0.875,5.342 -3.63,5.342 h -9.427 c -1.419,0 -2.734,-0.73 -3.497,-1.927 C 9.095,17.937 4.913,15.494 0,15.494 c -7.754,0 -14.633,6.332 -14.547,13.847 -0.086,7.515 6.793,13.847 14.547,13.847 4.913,0 9.095,-2.443 11.495,-6.206 0.763,-1.197 2.078,-1.927 3.497,-1.927 h 9.427 c 2.755,0 4.626,2.774 3.63,5.342 C 23.828,51.283 13.104,58.682 0,58.682 -17.24,58.682 -30.198,47.549 -30.198,29.341 -30.198,10.961 -17.24,0 0,0"
             style="fill:#000000;fill-opacity:1;fill-rule:nonzero;stroke:none"
             id="path36"
             inkscape:connector-curvature="0" /></g><g
           id="g38"
           transform="translate(589.9543,369.80359)"><path
             d="m 0,0 c 13.104,0 23.828,7.399 28.049,18.285 0.996,2.568 -0.875,5.342 -3.63,5.342 h -9.427 c -1.419,0 -2.734,-0.73 -3.497,-1.927 C 9.095,17.937 4.913,15.494 0,15.494 c -7.754,0 -14.633,6.332 -14.547,13.847 -0.086,7.515 6.793,13.847 14.547,13.847 4.913,0 9.095,-2.443 11.495,-6.206 0.763,-1.197 2.078,-1.927 3.497,-1.927 h 9.427 c 2.755,0 4.626,2.774 3.63,5.342 C 23.828,51.283 13.104,58.682 0,58.682 -17.24,58.682 -30.198,47.549 -30.198,29.341 -30.198,10.961 -17.24,0 0,0"
             style="fill:#000000;fill-opacity:1;fill-rule:nonzero;stroke:none"
             id="path40"
             inkscape:connector-curvature="0" /></g><g
           id="g42"
           transform="translate(326.8672,428.48559)"><path
             d="m 0,0 c -2.678,0 -5.273,-0.342 -7.744,-0.982 -2.834,-0.734 -3.992,-4.131 -2.186,-6.436 l 5.059,-6.454 c 0.847,-1.081 2.144,-1.711 3.516,-1.709 L 0,-15.58 c 7.804,0 14.13,-6.161 14.13,-13.761 0,-7.6 -6.326,-13.761 -14.13,-13.761 -6.361,0 -11.739,4.093 -13.51,9.723 -0.504,1.6 -2.025,2.66 -3.702,2.66 h -8.257 c -2.595,0 -4.524,-2.412 -3.954,-4.943 2.969,-13.166 15.013,-23.02 29.423,-23.02 16.639,0 30.127,13.136 30.127,29.341 C 30.127,-13.136 16.639,0 0,0"
             style="fill:#000000;fill-opacity:1;fill-rule:nonzero;stroke:none"
             id="path44"
             inkscape:connector-curvature="0" /></g><g
           id="g46"
           transform="translate(783.9431,405.93429)"><path
             d="m 0,0 c -1.295,13.948 -13.014,23.815 -26.695,23.815 -6.072,0 -11.294,-2.207 -15.302,-5.941 v 20.547 0 1.154 c 0,2.278 -1.847,4.733 -4.125,4.733 h -7.173 c -2.614,0 -4.733,-2.119 -4.733,-4.733 v -1.154 -67.341 -1.165 c 0,-2.611 2.117,-4.728 4.728,-4.728 h 6.575 c 2.611,0 4.728,2.117 4.728,4.728 v 1.165 28.028 c 2.239,5.465 6.679,9.258 12.449,9.258 8.52,0 13.469,-8.127 13.469,-17.742 v -2.806 -13.903 -4 c 0,-2.611 2.116,-4.728 4.727,-4.728 h 6.576 c 2.611,0 4.728,2.117 4.728,4.728 v 4.082 z"
             style="fill:#000000;fill-opacity:1;fill-rule:nonzero;stroke:none"
             id="path48"
             inkscape:connector-curvature="0" /></g><g
           id="g50"
           transform="translate(646.049,382.11209)"><path
             d="m 0,0 c -4.173,0 -7.467,2.745 -7.467,6.263 0,3.625 3.294,6.263 7.467,6.263 H 9.333 V 6.703 C 9.333,2.745 5.49,0 0,0 m 25.364,31.82 c 0,7.309 -5.924,13.233 -13.233,13.233 H 6.525 -8.922 -9.189 c -2.278,0 -4.733,-1.696 -4.733,-3.788 v -0.672 c -0.024,-0.199 -0.061,-0.395 -0.061,-0.601 v -4.601 c 0,-0.206 0.037,-0.402 0.061,-0.601 v -0.113 c 0,-2.401 2.119,-4.347 4.733,-4.347 H 6.525 v 0 H 9.333 V 24.174 H -4.283 c -11.2,0 -19.655,-7.8 -19.655,-18.241 0,-10.331 8.455,-18.241 19.655,-18.241 5.466,0 10.304,1.798 13.794,4.802 0.002,0.002 0.005,0.002 0.007,0.004 0.436,-1.601 1.683,-2.852 3.28,-3.297 0.292,-0.123 0.614,-0.192 0.951,-0.192 h 0.312 4.506 2.069 c 2.611,0 4.728,2.117 4.728,4.728 v 8.948 0 z"
             style="fill:#000000;fill-opacity:1;fill-rule:nonzero;stroke:none"
             id="path52"
             inkscape:connector-curvature="0" /></g><g
           id="g54"
           transform="translate(878.88,382.11209)"><path
             d="m 0,0 c -4.173,0 -7.467,2.745 -7.467,6.263 0,3.625 3.294,6.263 7.467,6.263 H 9.333 V 6.703 C 9.333,2.745 5.49,0 0,0 m 25.364,31.82 c 0,7.309 -5.924,13.233 -13.233,13.233 H 6.525 -8.922 -9.189 c -2.278,0 -4.733,-1.696 -4.733,-3.788 v -0.672 c -0.024,-0.199 -0.061,-0.395 -0.061,-0.601 v -4.601 c 0,-0.206 0.037,-0.402 0.061,-0.601 v -0.113 c 0,-2.401 2.119,-4.347 4.733,-4.347 H 6.525 v 0 H 9.333 V 24.174 H -4.283 c -11.2,0 -19.655,-7.8 -19.655,-18.241 0,-10.331 8.455,-18.241 19.655,-18.241 5.466,0 10.304,1.798 13.794,4.802 0.002,0.002 0.005,0.002 0.007,0.004 0.436,-1.601 1.683,-2.852 3.28,-3.297 0.292,-0.123 0.614,-0.192 0.951,-0.192 h 0.312 4.506 2.069 c 2.611,0 4.728,2.117 4.728,4.728 v 8.948 0 z"
             style="fill:#000000;fill-opacity:1;fill-rule:nonzero;stroke:none"
             id="path56"
             inkscape:connector-curvature="0" /></g><g
           id="g58"
           transform="translate(834.1607,395.23929)"><path
             d="m 0,0 c -0.979,-4.256 -5.364,-8.605 -9.63,-9.538 -11.037,-2.414 -19.458,6.325 -16.905,17.362 1.098,4.747 4.877,8.488 9.638,9.525 C -5.867,19.751 2.537,11.03 0,0 m -10.085,33.246 c -6.694,0 -12.362,-2.676 -16.501,-7.133 -0.148,-0.158 -0.409,-0.06 -0.409,0.157 v 24 c 0,2.278 -1.847,4.733 -4.125,4.733 h -7.173 c -2.614,0 -4.733,-2.119 -4.733,-4.733 v -3.283 -64.839 -1.538 c 0,-2.611 2.117,-4.728 4.728,-4.728 h 1.539 4.106 0.93 c 2.611,0 4.728,2.117 4.728,4.728 v 0.931 c 0,0.216 0.261,0.315 0.409,0.156 4.139,-4.456 9.807,-7.133 16.501,-7.133 15.482,0 27.011,12.636 27.011,29.34 0,16.704 -11.529,29.342 -27.011,29.342"
             style="fill:#000000;fill-opacity:1;fill-rule:nonzero;stroke:none"
             id="path60"
             inkscape:connector-curvature="0" /></g><g
           id="g62"
           transform="translate(1016.1288,445.50929)"><path
             d="m 0,0 c 0,2.278 -1.847,4.733 -4.125,4.733 h -7.173 c -2.614,0 -4.733,-2.119 -4.733,-4.733 v -3.283 -64.839 -1.538 c 0,-2.611 2.117,-4.728 4.728,-4.728 h 1.539 4.105 0.931 c 2.611,0 4.728,2.117 4.728,4.728 v 0.931 z"
             style="fill:#000000;fill-opacity:1;fill-rule:nonzero;stroke:none"
             id="path64"
             inkscape:connector-curvature="0" /></g><g
           id="g66"
           transform="translate(526.7206,429.74979)"><path
             d="m 0,0 c -6.692,0 -12.356,-2.674 -16.495,-7.127 -0.148,-0.159 -0.393,-0.064 -0.414,0.152 -0.201,2.088 -1.847,4.39 -4.125,4.39 h -7.173 c -2.614,0 -4.733,-2.118 -4.733,-4.732 v -0.196 -42.322 -4.066 c 0,-2.611 2.117,-4.728 4.728,-4.728 h 6.575 c 2.611,0 4.728,2.117 4.728,4.728 v 3.742 0 16.967 c 0,9.616 5.606,17.743 14.056,17.743 8.52,0 13.469,-8.127 13.469,-17.743 v -2.805 -13.904 -4 c 0,-2.611 2.116,-4.728 4.728,-4.728 h 6.575 c 2.611,0 4.728,2.117 4.728,4.728 v 4.057 l 0.048,26.029 C 25.4,-9.867 13.681,0 0,0"
             style="fill:#000000;fill-opacity:1;fill-rule:nonzero;stroke:none"
             id="path68"
             inkscape:connector-curvature="0" /></g><g
           id="g70"
           transform="translate(1005.7517,403.11669)"><path
             d="m 0,0 -18.996,21.485 c -0.975,1.593 -2.709,2.564 -4.576,2.564 h -6.164 c -4.293,0 -6.852,-4.786 -4.469,-8.356 l 15.979,-19.446 -16.488,-19.714 c -2.475,-3.617 0.116,-8.528 4.499,-8.528 h 6.208 c 1.868,0 3.606,0.958 4.603,2.538 L 0.045,-7.327 C 1.888,-5.173 1.87,-2.134 0,0"
             style="fill:#bde322;fill-opacity:1;fill-rule:nonzero;stroke:none"
             id="path72"
             inkscape:connector-curvature="0" /></g></g></g></g></svg>